<mxfile host="Electron" modified="2024-10-10T23:46:07.373Z" agent="Mozilla/5.0 (X11; Linux x86_64) AppleWebKit/537.36 (KHTML, like Gecko) draw.io/24.4.0 Chrome/126.0.6478.234 Electron/31.4.0 Safari/537.36" etag="OooKnZ5kLJ-tYC55u3JN" version="24.3.1" type="device">
  <diagram name="Page-1" id="vktufIvxB6chyL3TUuBN">
    <mxGraphModel dx="1434" dy="839" grid="1" gridSize="10" guides="1" tooltips="1" connect="1" arrows="1" fold="1" page="1" pageScale="1" pageWidth="850" pageHeight="1100" math="0" shadow="0">
      <root>
        <mxCell id="0" />
        <mxCell id="1" parent="0" />
        <mxCell id="LpaqX45LsGa8BkoIIXtR-1" value="Pipewire Server" style="rounded=1;whiteSpace=wrap;html=1;fillColor=#d5e8d4;strokeColor=#82b366;" vertex="1" parent="1">
          <mxGeometry x="50" y="207.5" width="120" height="115" as="geometry" />
        </mxCell>
        <mxCell id="LpaqX45LsGa8BkoIIXtR-2" value="" style="rounded=0;whiteSpace=wrap;html=1;fillColor=#b1ddf0;strokeColor=#10739e;" vertex="1" parent="1">
          <mxGeometry x="280" y="200" width="520" height="310" as="geometry" />
        </mxCell>
        <mxCell id="LpaqX45LsGa8BkoIIXtR-17" style="edgeStyle=orthogonalEdgeStyle;rounded=0;orthogonalLoop=1;jettySize=auto;html=1;entryX=0;entryY=0.5;entryDx=0;entryDy=0;" edge="1" parent="1" source="LpaqX45LsGa8BkoIIXtR-4" target="LpaqX45LsGa8BkoIIXtR-14">
          <mxGeometry relative="1" as="geometry" />
        </mxCell>
        <mxCell id="LpaqX45LsGa8BkoIIXtR-4" value="Pipewire Client/Processor" style="rounded=1;whiteSpace=wrap;html=1;fillColor=#f8cecc;strokeColor=#b85450;" vertex="1" parent="1">
          <mxGeometry x="290" y="210" width="150" height="110" as="geometry" />
        </mxCell>
        <mxCell id="LpaqX45LsGa8BkoIIXtR-18" style="edgeStyle=orthogonalEdgeStyle;rounded=0;orthogonalLoop=1;jettySize=auto;html=1;" edge="1" parent="1" source="LpaqX45LsGa8BkoIIXtR-6">
          <mxGeometry relative="1" as="geometry">
            <mxPoint x="500" y="360" as="targetPoint" />
          </mxGeometry>
        </mxCell>
        <mxCell id="LpaqX45LsGa8BkoIIXtR-6" value="Scene Manager" style="rounded=1;whiteSpace=wrap;html=1;fillColor=#f8cecc;strokeColor=#b85450;" vertex="1" parent="1">
          <mxGeometry x="290" y="350" width="150" height="60" as="geometry" />
        </mxCell>
        <mxCell id="LpaqX45LsGa8BkoIIXtR-8" style="edgeStyle=orthogonalEdgeStyle;rounded=0;orthogonalLoop=1;jettySize=auto;html=1;entryX=0;entryY=0.5;entryDx=0;entryDy=0;" edge="1" parent="1" source="LpaqX45LsGa8BkoIIXtR-7" target="LpaqX45LsGa8BkoIIXtR-6">
          <mxGeometry relative="1" as="geometry" />
        </mxCell>
        <mxCell id="LpaqX45LsGa8BkoIIXtR-7" value="Scene File" style="rounded=1;whiteSpace=wrap;html=1;fillColor=#ffe6cc;strokeColor=#d79b00;" vertex="1" parent="1">
          <mxGeometry x="50" y="350" width="120" height="60" as="geometry" />
        </mxCell>
        <mxCell id="LpaqX45LsGa8BkoIIXtR-10" style="edgeStyle=orthogonalEdgeStyle;rounded=0;orthogonalLoop=1;jettySize=auto;html=1;entryX=0;entryY=0.5;entryDx=0;entryDy=0;" edge="1" parent="1" source="LpaqX45LsGa8BkoIIXtR-1" target="LpaqX45LsGa8BkoIIXtR-4">
          <mxGeometry relative="1" as="geometry" />
        </mxCell>
        <mxCell id="LpaqX45LsGa8BkoIIXtR-13" style="edgeStyle=orthogonalEdgeStyle;rounded=0;orthogonalLoop=1;jettySize=auto;html=1;entryX=0;entryY=0.5;entryDx=0;entryDy=0;" edge="1" parent="1" source="LpaqX45LsGa8BkoIIXtR-11" target="LpaqX45LsGa8BkoIIXtR-12">
          <mxGeometry relative="1" as="geometry" />
        </mxCell>
        <mxCell id="LpaqX45LsGa8BkoIIXtR-11" value="Effects File" style="rounded=1;whiteSpace=wrap;html=1;fillColor=#ffe6cc;strokeColor=#d79b00;" vertex="1" parent="1">
          <mxGeometry x="50" y="440" width="120" height="60" as="geometry" />
        </mxCell>
        <mxCell id="LpaqX45LsGa8BkoIIXtR-12" value="Effects Manager" style="rounded=1;whiteSpace=wrap;html=1;fillColor=#f8cecc;strokeColor=#b85450;" vertex="1" parent="1">
          <mxGeometry x="290" y="440" width="150" height="60" as="geometry" />
        </mxCell>
        <mxCell id="LpaqX45LsGa8BkoIIXtR-16" style="edgeStyle=orthogonalEdgeStyle;rounded=0;orthogonalLoop=1;jettySize=auto;html=1;" edge="1" parent="1" source="LpaqX45LsGa8BkoIIXtR-14" target="LpaqX45LsGa8BkoIIXtR-15">
          <mxGeometry relative="1" as="geometry" />
        </mxCell>
        <mxCell id="LpaqX45LsGa8BkoIIXtR-14" value="Composer" style="rounded=1;whiteSpace=wrap;html=1;fillColor=#e1d5e7;strokeColor=#9673a6;" vertex="1" parent="1">
          <mxGeometry x="500" y="207.5" width="120" height="292.5" as="geometry" />
        </mxCell>
        <mxCell id="LpaqX45LsGa8BkoIIXtR-15" value="Frame buffer/Frontend" style="rounded=0;whiteSpace=wrap;html=1;fillColor=#dae8fc;strokeColor=#6c8ebf;" vertex="1" parent="1">
          <mxGeometry x="670" y="325" width="120" height="60" as="geometry" />
        </mxCell>
        <mxCell id="LpaqX45LsGa8BkoIIXtR-20" style="edgeStyle=orthogonalEdgeStyle;rounded=0;orthogonalLoop=1;jettySize=auto;html=1;entryX=0;entryY=0.525;entryDx=0;entryDy=0;entryPerimeter=0;" edge="1" parent="1" source="LpaqX45LsGa8BkoIIXtR-12" target="LpaqX45LsGa8BkoIIXtR-14">
          <mxGeometry relative="1" as="geometry" />
        </mxCell>
      </root>
    </mxGraphModel>
  </diagram>
</mxfile>
